<svg width="24" height="24" viewBox="0 0 24 24" fill="none" xmlns="http://www.w3.org/2000/svg">
<path d="M3 2.992C3 2.444 3.445 2 3.993 2H20.007C20.2696 2.00183 20.521 2.1069 20.7068 2.29251C20.8926 2.47813 20.9979 2.72938 21 2.992V21.008C20.9997 21.2712 20.895 21.5235 20.7088 21.7095C20.5226 21.8955 20.2702 22 20.007 22H3.993C3.73038 21.9982 3.47902 21.8931 3.29322 21.7075C3.10742 21.5219 3.00209 21.2706 3 21.008V2.992ZM19 11V4H5V11H19ZM19 13H5V20H19V13ZM9 6H15V8H9V6ZM9 15H15V17H9V15Z" fill="#fff"/>
</svg>
