<svg width="24" height="24" viewBox="0 0 24 24" fill="none" xmlns="http://www.w3.org/2000/svg">
<path d="M10.9001 2.10001L20.7991 3.51501L22.2131 13.415L13.0211 22.607C12.8336 22.7945 12.5793 22.8998 12.3141 22.8998C12.0489 22.8998 11.7946 22.7945 11.6071 22.607L1.70709 12.707C1.51962 12.5195 1.41431 12.2652 1.41431 12C1.41431 11.7348 1.51962 11.4805 1.70709 11.293L10.9001 2.10001ZM11.6071 4.22201L3.82809 12L12.3141 20.485L20.0921 12.707L19.0321 5.28201L11.6071 4.22201ZM13.7271 10.586C13.3519 10.2107 13.1412 9.70179 13.1413 9.17115C13.1414 8.90841 13.1932 8.64825 13.2938 8.40552C13.3944 8.1628 13.5418 7.94226 13.7276 7.75651C13.9134 7.57075 14.134 7.42342 14.3768 7.32291C14.6195 7.22241 14.8797 7.1707 15.1424 7.17075C15.6731 7.17084 16.1819 7.38172 16.5571 7.75701C16.9322 8.13229 17.1429 8.64123 17.1429 9.17186C17.1428 9.70249 16.9319 10.2114 16.5566 10.5865C16.1813 10.9617 15.6724 11.1724 15.1417 11.1723C14.6111 11.1722 14.1022 10.9613 13.7271 10.586Z" fill="#fff"/>
</svg>
